name C:\Users\u0101727\Documents\MyRepositories\upper-imu-dc\Results\main_tracking\Case_49\kinematics_filtered.mot
datacolumns 10
datarows 52
range 3.70000000 4.21000000
endheader 
time	clav_prot	clav_elev	scapula_abduction	scapula_elevation	scapula_upward_rot	scapula_winging	plane_elv	shoulder_elv	axial_rot	
          3.70000000	        -44.05611110	          8.53578089	          0.24839419	         -2.15703105	         82.41268009	        -11.72848844	         31.22157797	         89.39703998	         -6.93269691	
          3.71000000	        -44.04407151	          8.53744895	          0.26351414	         -2.15561799	         82.40629139	        -11.72234272	         31.24326202	         89.41501074	         -6.91493923	
          3.72000000	        -44.03160050	          8.53903595	          0.27878099	         -2.15431410	         82.39911372	        -11.71603360	         31.26430522	         89.43308987	         -6.89285940	
          3.73000000	        -44.01875958	          8.54059907	          0.29413267	         -2.15307723	         82.39122054	        -11.70960375	         31.28491961	         89.45109593	         -6.86666034	
          3.74000000	        -44.00565089	          8.54217610	          0.30944970	         -2.15188076	         82.38269423	        -11.70311475	         31.30533461	         89.46883312	         -6.83661473	
          3.75000000	        -43.99241652	          8.54378352	          0.32455572	         -2.15071509	         82.37362468	        -11.69664643	         31.32579271	         89.48609333	         -6.80304392	
          3.76000000	        -43.97923599	          8.54541511	          0.33922079	         -2.14958854	         82.36410763	        -11.69029508	         31.34654320	         89.50265934	         -6.76629577	
          3.77000000	        -43.96632156	          8.54704088	          0.35316830	         -2.14852787	         82.35424286	        -11.68417048	         31.36783394	         89.51830929	         -6.72672426	
          3.78000000	        -43.95391083	          8.54860644	          0.36608618	         -2.14757836	         82.34413231	        -11.67839136	         31.38990100	         89.53282266	         -6.68467323	
          3.79000000	        -43.94225671	          8.55003262	          0.37764265	         -2.14680338	         82.33387824	        -11.67307926	         31.41295664	         89.54598756	         -6.64046585	
          3.80000000	        -43.93161490	          8.55121584	          0.38750602	         -2.14628328	         82.32358150	        -11.66835097	         31.43717601	         89.55760911	         -6.59440064	
          3.81000000	        -43.92222956	          8.55202955	          0.39536773	         -2.14611342	         82.31334002	        -11.66431017	         31.46268359	         89.56751830	         -6.54675362	
          3.82000000	        -43.91431786	          8.55232723	          0.40096665	         -2.14640095	         82.30324749	        -11.66103869	         31.48954036	         89.57558077	         -6.49778511	
          3.83000000	        -43.90805498	          8.55194728	          0.40411280	         -2.14726032	         82.29339239	        -11.65858853	         31.51773304	         89.58170470	         -6.44774922	
          3.84000000	        -43.90356047	          8.55072012	          0.40470808	         -2.14880739	         82.28385714	        -11.65697535	         31.54716668	         89.58584701	         -6.39690358	
          3.85000000	        -43.90088761	          8.54847734	          0.40276168	         -2.15115243	         82.27471754	        -11.65617431	         31.57766163	         89.58801729	         -6.34551741	
          3.86000000	        -43.90001665	          8.54506241	          0.39839852	         -2.15439230	         82.26604215	        -11.65611880	         31.60895579	         89.58827900	         -6.29387630	
          3.87000000	        -43.90085262	          8.54034214	          0.39185961	         -2.15860254	         82.25789173	        -11.65670225	         31.64071240	         89.58674777	         -6.24228327	
          3.88000000	        -43.90322821	          8.53421785	          0.38349388	         -2.16383014	         82.25031856	        -11.65778308	         31.67253331	         89.58358696	         -6.19105639	
          3.89000000	        -43.90691135	          8.52663498	          0.37374219	         -2.17008774	         82.24336544	        -11.65919223	         31.70397703	         89.57900093	         -6.14052382	
          3.90000000	        -43.91161704	          8.51759016	          0.36311454	         -2.17734996	         82.23706465	        -11.66074275	         31.73458052	         89.57322641	         -6.09101750	
          3.91000000	        -43.91702257	          8.50713491	          0.35216234	         -2.18555233	         82.23143660	        -11.66224066	         31.76388345	         89.56652276	         -6.04286683	
          3.92000000	        -43.92278497	          8.49537566	          0.34144764	         -2.19459288	         82.22648858	        -11.66349624	         31.79145321	         89.55916168	         -5.99639304	
          3.93000000	        -43.92855959	          8.48247032	          0.33151162	         -2.20433617	         82.22221362	        -11.66433505	         31.81690906	         89.55141684	         -5.95190462	
          3.94000000	        -43.93401851	          8.46862168	          0.32284446	         -2.21461940	         82.21858983	        -11.66460798	         31.83994385	         89.54355404	         -5.90969371	
          3.95000000	        -43.93886748	          8.45406873	          0.31585864	         -2.22525971	         82.21558040	        -11.66419969	         31.86034167	         89.53582216	         -5.87003284	
          3.96000000	        -43.94286053	          8.43907641	          0.31086748	         -2.23606228	         82.21313454	        -11.66303493	         31.87799053	         89.52844518	         -5.83317136	
          3.97000000	        -43.94581117	          8.42392491	          0.30807038	         -2.24682828	         82.21118951	        -11.66108243	         31.89288887	         89.52161563	         -5.79933086	
          3.98000000	        -43.94759949	          8.40889887	          0.30754574	         -2.25736247	         82.20967367	        -11.65835596	         31.90514583	         89.51548949	         -5.76869937	
          3.99000000	        -43.94817504	          8.39427707	          0.30925196	         -2.26747993	         82.20851065	        -11.65491266	         31.91497497	         89.51018290	         -5.74142398	
          4.00000000	        -43.94755509	          8.38032287	          0.31303648	         -2.27701188	         82.20762427	        -11.65084845	         31.92268217	         89.50577067	         -5.71760272	
          4.01000000	        -43.94581892	          8.36727553	          0.31865175	         -2.28581045	         82.20694391	        -11.64629116	         31.92864855	         89.50228670	         -5.69727620	
          4.02000000	        -43.94309867	          8.35534269	          0.32577675	         -2.29375245	         82.20640985	        -11.64139171	         31.93330960	         89.49972634	         -5.68042051	
          4.03000000	        -43.93956768	          8.34469412	          0.33404200	         -2.30074204	         82.20597813	        -11.63631412	         31.93713226	         89.49805055	         -5.66694256	
          4.04000000	        -43.93542753	          8.33545714	          0.34305559	         -2.30671238	         82.20562433	        -11.63122544	         31.94059150	         89.49719152	         -5.65667938	
          4.05000000	        -43.93089492	          8.32771389	          0.35242795	         -2.31162607	         82.20534596	        -11.62628614	         31.94414811	         89.49705959	         -5.64940223	
          4.06000000	        -43.92618944	          8.32150057	          0.36179317	         -2.31547460	         82.20516319	        -11.62164213	         31.94822900	         89.49755070	         -5.64482620	
          4.07000000	        -43.92152329	          8.31680894	          0.37082544	         -2.31827658	         82.20511778	        -11.61741873	         31.95321115	         89.49855410	         -5.64262506	
          4.08000000	        -43.91709332	          8.31358969	          0.37924951	         -2.32007510	         82.20527045	        -11.61371701	         31.95940980	         89.49995950	         -5.64245053	
          4.09000000	        -43.91307592	          8.31175757	          0.38684521	         -2.32093421	         82.20569693	        -11.61061263	         31.96707101	         89.50166319	         -5.64395459	
          4.10000000	        -43.90962456	          8.31119781	          0.39344609	         -2.32093503	         82.20648300	        -11.60815689	         31.97636862	         89.50357277	         -5.64681284	
          4.11000000	        -43.90686990	          8.31177325	          0.39893333	         -2.32017142	         82.20771901	        -11.60637967	         31.98740496	         89.50560999	         -5.65074688	
          4.12000000	        -43.90492198	          8.31333174	          0.40322598	         -2.31874585	         82.20949424	        -11.60529379	         32.00021478	         89.50771187	         -5.65554361	
          4.13000000	        -43.90387372	          8.31571337	          0.40626880	         -2.31676537	         82.21189136	        -11.60490022	         32.01477159	         89.50982999	         -5.66106953	
          4.14000000	        -43.90380537	          8.31875711	          0.40801934	         -2.31433807	         82.21498131	        -11.60519350	         32.03099541	         89.51192829	         -5.66727856	
          4.15000000	        -43.90478893	          8.32230679	          0.40843535	         -2.31156992	         82.21881871	        -11.60616699	         32.04876115	         89.51397980	         -5.67421257	
          4.16000000	        -43.90689225	          8.32621609	          0.40746369	         -2.30856213	         82.22343799	        -11.60781753	         32.06790662	         89.51596269	         -5.68199411	
          4.17000000	        -43.91018218	          8.33035273	          0.40503141	         -2.30540896	         82.22885009	        -11.61014907	         32.08823955	         89.51785602	         -5.69081198	
          4.18000000	        -43.91472677	          8.33460166	          0.40103938	         -2.30219602	         82.23504002	        -11.61317543	         32.10954316	         89.51963550	         -5.70090050	
          4.19000000	        -43.92059644	          8.33886721	          0.39535836	         -2.29899913	         82.24196494	        -11.61692192	         32.13157984	         89.52126950	         -5.71251399	
          4.20000000	        -43.92786446	          8.34307421	          0.38782690	         -2.29588371	         82.24955293	        -11.62142621	         32.15409307	         89.52271530	         -5.72589849	
          4.21000000	        -43.93660709	          8.34716818	          0.37825072	         -2.29290483	         82.25770236	        -11.62673855	         32.17680781	         89.52391545	         -5.74126282	
